<mxfile host="app.diagrams.net" agent="Mozilla/5.0 (X11; CrOS x86_64 14541.0.0) AppleWebKit/537.36 (KHTML, like Gecko) Chrome/129.0.0.0 Safari/537.36" version="24.7.17">
  <diagram id="2RAkf9iS2bYrb-5zrusB" name="Page-1">
    <mxGraphModel dx="3099" dy="1811" grid="1" gridSize="10" guides="1" tooltips="1" connect="1" arrows="1" fold="1" page="1" pageScale="1" pageWidth="850" pageHeight="1100" math="0" shadow="0">
      <root>
        <mxCell id="0" />
        <mxCell id="1" parent="0" />
        <mxCell id="EpLoNu7SxfJ4iQwhgqlz-4" style="edgeStyle=orthogonalEdgeStyle;rounded=0;orthogonalLoop=1;jettySize=auto;html=1;exitX=1;exitY=0.5;exitDx=0;exitDy=0;entryX=0;entryY=0.5;entryDx=0;entryDy=0;endArrow=block;endFill=1;" parent="1" source="EpLoNu7SxfJ4iQwhgqlz-2" target="EpLoNu7SxfJ4iQwhgqlz-3" edge="1">
          <mxGeometry relative="1" as="geometry" />
        </mxCell>
        <mxCell id="EpLoNu7SxfJ4iQwhgqlz-6" value="" style="edgeStyle=orthogonalEdgeStyle;rounded=0;orthogonalLoop=1;jettySize=auto;html=1;endArrow=block;endFill=1;curved=1;entryX=0.449;entryY=0.017;entryDx=0;entryDy=0;entryPerimeter=0;" parent="1" source="EpLoNu7SxfJ4iQwhgqlz-2" target="zcjgjJbBtfx0ok88irLS-6" edge="1">
          <mxGeometry relative="1" as="geometry">
            <mxPoint x="-388.1111111111113" y="-700" as="targetPoint" />
          </mxGeometry>
        </mxCell>
        <mxCell id="EpLoNu7SxfJ4iQwhgqlz-37" style="edgeStyle=orthogonalEdgeStyle;curved=1;rounded=0;orthogonalLoop=1;jettySize=auto;html=1;exitX=0.5;exitY=1;exitDx=0;exitDy=0;endArrow=block;endFill=1;entryX=0.5;entryY=0;entryDx=0;entryDy=0;" parent="1" source="EpLoNu7SxfJ4iQwhgqlz-2" target="zcjgjJbBtfx0ok88irLS-8" edge="1">
          <mxGeometry relative="1" as="geometry">
            <mxPoint x="-160" y="-720" as="targetPoint" />
          </mxGeometry>
        </mxCell>
        <mxCell id="EpLoNu7SxfJ4iQwhgqlz-2" value="&lt;b&gt;Top-Claim C1:&lt;br&gt;&lt;/b&gt;The Intrusion rules implemented in Suricata can detect the malware signatures in real-time." style="rounded=0;whiteSpace=wrap;html=1;" parent="1" vertex="1">
          <mxGeometry x="-410" y="-830" width="150" height="90" as="geometry" />
        </mxCell>
        <mxCell id="EpLoNu7SxfJ4iQwhgqlz-3" value="&lt;b&gt;Context: CT1&lt;/b&gt;&lt;br&gt;Common Malware Signature&amp;nbsp;called Emotet&amp;nbsp;" style="rounded=1;whiteSpace=wrap;html=1;arcSize=30;" parent="1" vertex="1">
          <mxGeometry x="-168.13" y="-820" width="155" height="70" as="geometry" />
        </mxCell>
        <mxCell id="EpLoNu7SxfJ4iQwhgqlz-9" style="edgeStyle=orthogonalEdgeStyle;curved=1;rounded=0;orthogonalLoop=1;jettySize=auto;html=1;endArrow=block;endFill=1;exitX=0.5;exitY=1;exitDx=0;exitDy=0;entryX=0;entryY=0;entryDx=98.375;entryDy=0;entryPerimeter=0;" parent="1" source="zcjgjJbBtfx0ok88irLS-6" target="zcjgjJbBtfx0ok88irLS-7" edge="1">
          <mxGeometry relative="1" as="geometry">
            <mxPoint x="-380" y="-610" as="sourcePoint" />
            <mxPoint x="-331.15296296296304" y="-590" as="targetPoint" />
          </mxGeometry>
        </mxCell>
        <mxCell id="EpLoNu7SxfJ4iQwhgqlz-12" style="edgeStyle=orthogonalEdgeStyle;curved=1;rounded=0;orthogonalLoop=1;jettySize=auto;html=1;exitX=0.5;exitY=1;exitDx=0;exitDy=0;endArrow=block;endFill=1;exitPerimeter=0;entryX=0.5;entryY=0;entryDx=0;entryDy=0;" parent="1" source="zcjgjJbBtfx0ok88irLS-7" target="NRTWiq4-zaDcEtuE9q8b-6" edge="1">
          <mxGeometry relative="1" as="geometry">
            <mxPoint x="-330" y="-510" as="sourcePoint" />
            <mxPoint x="-460" y="-460" as="targetPoint" />
          </mxGeometry>
        </mxCell>
        <mxCell id="EpLoNu7SxfJ4iQwhgqlz-13" style="edgeStyle=orthogonalEdgeStyle;curved=1;rounded=0;orthogonalLoop=1;jettySize=auto;html=1;endArrow=block;endFill=1;exitX=0.5;exitY=1;exitDx=0;exitDy=0;entryX=0;entryY=0;entryDx=81.5;entryDy=0;entryPerimeter=0;" parent="1" source="zcjgjJbBtfx0ok88irLS-8" target="EpLoNu7SxfJ4iQwhgqlz-11" edge="1">
          <mxGeometry relative="1" as="geometry">
            <mxPoint x="-340.04" y="-520" as="sourcePoint" />
            <mxPoint x="-260" y="-560" as="targetPoint" />
          </mxGeometry>
        </mxCell>
        <mxCell id="EpLoNu7SxfJ4iQwhgqlz-10" value="&lt;b&gt;Rebuttal R1&lt;/b&gt;: Unless network congestion cause delays in detection." style="shape=note;whiteSpace=wrap;html=1;backgroundOutline=1;darkOpacity=0.05;size=17;fillColor=#FFF2CC;" parent="1" vertex="1">
          <mxGeometry x="-782.5" y="-578.75" width="190" height="72.5" as="geometry" />
        </mxCell>
        <mxCell id="EpLoNu7SxfJ4iQwhgqlz-17" style="edgeStyle=orthogonalEdgeStyle;curved=1;rounded=0;orthogonalLoop=1;jettySize=auto;html=1;endArrow=block;endFill=1;exitX=0.5;exitY=1;exitDx=0;exitDy=0;exitPerimeter=0;entryX=0.5;entryY=0;entryDx=0;entryDy=0;" parent="1" source="EpLoNu7SxfJ4iQwhgqlz-11" target="NRTWiq4-zaDcEtuE9q8b-8" edge="1">
          <mxGeometry relative="1" as="geometry">
            <mxPoint x="-260.00296296296307" y="-490" as="sourcePoint" />
            <mxPoint x="-220" y="-460" as="targetPoint" />
          </mxGeometry>
        </mxCell>
        <mxCell id="EpLoNu7SxfJ4iQwhgqlz-11" value="&lt;b&gt;Rebuttal R3&lt;/b&gt;: Unless the configuration of Suricata is misapplied" style="shape=note;whiteSpace=wrap;html=1;backgroundOutline=1;darkOpacity=0.05;size=17;fillColor=#FFF2CC;" parent="1" vertex="1">
          <mxGeometry x="-305.62" y="-572.5" width="180" height="70" as="geometry" />
        </mxCell>
        <mxCell id="EpLoNu7SxfJ4iQwhgqlz-21" style="edgeStyle=orthogonalEdgeStyle;curved=1;rounded=0;orthogonalLoop=1;jettySize=auto;html=1;endArrow=block;endFill=1;exitX=0.5;exitY=1;exitDx=0;exitDy=0;entryX=0.5;entryY=0;entryDx=0;entryDy=0;" parent="1" source="EpLoNu7SxfJ4iQwhgqlz-2" target="EpLoNu7SxfJ4iQwhgqlz-14" edge="1">
          <mxGeometry relative="1" as="geometry">
            <mxPoint x="-650" y="-420" as="targetPoint" />
          </mxGeometry>
        </mxCell>
        <mxCell id="EpLoNu7SxfJ4iQwhgqlz-14" value="&lt;b&gt;Sub-Claim C2:&lt;br&gt;&lt;/b&gt;The Suricata system processes traffic in real-time and triggers alerts for Emotet activity" style="rounded=0;whiteSpace=wrap;html=1;" parent="1" vertex="1">
          <mxGeometry x="-750" y="-690" width="170" height="80" as="geometry" />
        </mxCell>
        <mxCell id="EpLoNu7SxfJ4iQwhgqlz-27" style="edgeStyle=orthogonalEdgeStyle;curved=1;rounded=0;orthogonalLoop=1;jettySize=auto;html=1;endArrow=block;endFill=1;exitX=0.5;exitY=1;exitDx=0;exitDy=0;exitPerimeter=0;entryX=0.5;entryY=0;entryDx=0;entryDy=0;" parent="1" source="zcjgjJbBtfx0ok88irLS-17" edge="1" target="NRTWiq4-zaDcEtuE9q8b-10">
          <mxGeometry relative="1" as="geometry">
            <mxPoint x="-220" y="160" as="sourcePoint" />
            <mxPoint x="240" y="-310" as="targetPoint" />
          </mxGeometry>
        </mxCell>
        <mxCell id="EpLoNu7SxfJ4iQwhgqlz-23" style="edgeStyle=orthogonalEdgeStyle;curved=1;rounded=0;orthogonalLoop=1;jettySize=auto;html=1;entryX=0.5;entryY=0;entryDx=0;entryDy=0;endArrow=block;endFill=1;exitX=0.5;exitY=1;exitDx=0;exitDy=0;exitPerimeter=0;" parent="1" target="EpLoNu7SxfJ4iQwhgqlz-22" edge="1" source="6qWn8Aii0yTjPBrUQgwf-1">
          <mxGeometry relative="1" as="geometry">
            <mxPoint x="-480" y="-205" as="sourcePoint" />
          </mxGeometry>
        </mxCell>
        <mxCell id="EpLoNu7SxfJ4iQwhgqlz-25" style="edgeStyle=orthogonalEdgeStyle;curved=1;rounded=0;orthogonalLoop=1;jettySize=auto;html=1;entryX=0.5;entryY=0;entryDx=0;entryDy=0;endArrow=block;endFill=1;" parent="1" source="EpLoNu7SxfJ4iQwhgqlz-19" target="EpLoNu7SxfJ4iQwhgqlz-24" edge="1">
          <mxGeometry relative="1" as="geometry" />
        </mxCell>
        <mxCell id="EpLoNu7SxfJ4iQwhgqlz-19" value="&lt;b&gt;Evidence E1:&lt;/b&gt;&lt;div&gt;Multi-threading&lt;/div&gt;" style="ellipse;whiteSpace=wrap;html=1;aspect=fixed;fillColor=#ffffff;rounded=0;" parent="1" vertex="1">
          <mxGeometry x="-860" y="-317.5" width="97.5" height="97.5" as="geometry" />
        </mxCell>
        <mxCell id="EpLoNu7SxfJ4iQwhgqlz-22" value="" style="ellipse;whiteSpace=wrap;html=1;aspect=fixed;fillColor=#CCCCCC;" parent="1" vertex="1">
          <mxGeometry x="-495" y="-190.01" width="30" height="30" as="geometry" />
        </mxCell>
        <mxCell id="EpLoNu7SxfJ4iQwhgqlz-24" value="" style="ellipse;whiteSpace=wrap;html=1;aspect=fixed;fillColor=#CCCCCC;" parent="1" vertex="1">
          <mxGeometry x="-826.25" y="-190" width="30" height="30" as="geometry" />
        </mxCell>
        <mxCell id="EpLoNu7SxfJ4iQwhgqlz-26" value="&lt;b&gt;Evidence E7:&lt;/b&gt;&lt;br&gt;&amp;nbsp;&lt;span style=&quot;background-color: initial;&quot;&gt;tls.store&amp;nbsp;&lt;/span&gt;" style="ellipse;whiteSpace=wrap;html=1;aspect=fixed;fillColor=#ffffff;rounded=0;" parent="1" vertex="1">
          <mxGeometry x="115" y="-190.01" width="90.01" height="90.01" as="geometry" />
        </mxCell>
        <mxCell id="EpLoNu7SxfJ4iQwhgqlz-39" style="edgeStyle=orthogonalEdgeStyle;curved=1;rounded=0;orthogonalLoop=1;jettySize=auto;html=1;endArrow=block;endFill=1;exitX=0.5;exitY=1;exitDx=0;exitDy=0;entryX=0.5;entryY=0;entryDx=0;entryDy=0;entryPerimeter=0;" parent="1" source="EpLoNu7SxfJ4iQwhgqlz-2" target="zcjgjJbBtfx0ok88irLS-14" edge="1">
          <mxGeometry relative="1" as="geometry">
            <mxPoint x="-20" y="-360" as="targetPoint" />
          </mxGeometry>
        </mxCell>
        <mxCell id="EpLoNu7SxfJ4iQwhgqlz-41" style="edgeStyle=orthogonalEdgeStyle;curved=1;rounded=0;orthogonalLoop=1;jettySize=auto;html=1;endArrow=block;endFill=1;exitX=0.5;exitY=1;exitDx=0;exitDy=0;exitPerimeter=0;entryX=0.5;entryY=0;entryDx=0;entryDy=0;" parent="1" source="zcjgjJbBtfx0ok88irLS-14" edge="1" target="zcjgjJbBtfx0ok88irLS-16">
          <mxGeometry relative="1" as="geometry">
            <mxPoint x="202.22000000000003" y="-610" as="sourcePoint" />
            <mxPoint x="210" y="-570" as="targetPoint" />
          </mxGeometry>
        </mxCell>
        <mxCell id="zcjgjJbBtfx0ok88irLS-6" value="&lt;b&gt;Sub-Claim C3:&lt;br&gt;&lt;/b&gt;&amp;nbsp;Suricata&#39;s ruleset contains specific detection signatures for Emotet" style="rounded=0;whiteSpace=wrap;html=1;" parent="1" vertex="1">
          <mxGeometry x="-550" y="-690" width="185" height="80" as="geometry" />
        </mxCell>
        <mxCell id="zcjgjJbBtfx0ok88irLS-7" value="&lt;b&gt;Rebuttal R2&lt;/b&gt;: Unless the ruleset does not include the most recent Emotet variants." style="shape=note;whiteSpace=wrap;html=1;backgroundOutline=1;darkOpacity=0.05;size=17;fillColor=#FFF2CC;" parent="1" vertex="1">
          <mxGeometry x="-580" y="-575" width="200" height="65" as="geometry" />
        </mxCell>
        <mxCell id="zcjgjJbBtfx0ok88irLS-8" value="&lt;b&gt;Sub-Claim C4:&lt;br&gt;&lt;/b&gt;&amp;nbsp;The rules in Suricata are correctly configured to network traffic." style="rounded=0;whiteSpace=wrap;html=1;" parent="1" vertex="1">
          <mxGeometry x="-315" y="-690" width="185" height="80" as="geometry" />
        </mxCell>
        <mxCell id="zcjgjJbBtfx0ok88irLS-9" value="&lt;b&gt;Evidence E3&lt;/b&gt;:&lt;br&gt;Deep packet inspection (DPI)&amp;nbsp;" style="ellipse;whiteSpace=wrap;html=1;aspect=fixed;fillColor=#ffffff;rounded=0;" parent="1" vertex="1">
          <mxGeometry x="-370" y="-328.75" width="98.75" height="98.75" as="geometry" />
        </mxCell>
        <mxCell id="zcjgjJbBtfx0ok88irLS-10" style="edgeStyle=orthogonalEdgeStyle;curved=1;rounded=0;orthogonalLoop=1;jettySize=auto;html=1;endArrow=block;endFill=1;exitX=0.5;exitY=1;exitDx=0;exitDy=0;entryX=0.5;entryY=0;entryDx=0;entryDy=0;entryPerimeter=0;" parent="1" source="zcjgjJbBtfx0ok88irLS-16" target="zcjgjJbBtfx0ok88irLS-17" edge="1">
          <mxGeometry relative="1" as="geometry">
            <mxPoint x="210" y="-490" as="sourcePoint" />
            <mxPoint x="270" y="-460" as="targetPoint" />
          </mxGeometry>
        </mxCell>
        <mxCell id="zcjgjJbBtfx0ok88irLS-18" value="Text" style="edgeLabel;html=1;align=center;verticalAlign=middle;resizable=0;points=[];" parent="zcjgjJbBtfx0ok88irLS-10" vertex="1" connectable="0">
          <mxGeometry x="-1" y="8" relative="1" as="geometry">
            <mxPoint x="-3" y="-7" as="offset" />
          </mxGeometry>
        </mxCell>
        <mxCell id="zcjgjJbBtfx0ok88irLS-11" style="edgeStyle=orthogonalEdgeStyle;curved=1;rounded=0;orthogonalLoop=1;jettySize=auto;html=1;entryX=0.5;entryY=0;entryDx=0;entryDy=0;endArrow=block;endFill=1;exitX=0.5;exitY=1;exitDx=0;exitDy=0;" parent="1" source="zcjgjJbBtfx0ok88irLS-9" target="zcjgjJbBtfx0ok88irLS-12" edge="1">
          <mxGeometry relative="1" as="geometry">
            <mxPoint x="-485" y="525" as="sourcePoint" />
          </mxGeometry>
        </mxCell>
        <mxCell id="zcjgjJbBtfx0ok88irLS-12" value="" style="ellipse;whiteSpace=wrap;html=1;aspect=fixed;fillColor=#CCCCCC;" parent="1" vertex="1">
          <mxGeometry x="-335.62" y="-190" width="30" height="30" as="geometry" />
        </mxCell>
        <mxCell id="zcjgjJbBtfx0ok88irLS-14" value="&lt;b&gt;Rebuttal R4&lt;/b&gt;: Unless Emotet traffic bypass detection via encrypted channels" style="shape=note;whiteSpace=wrap;html=1;backgroundOutline=1;darkOpacity=0.05;size=17;fillColor=#FFF2CC;" parent="1" vertex="1">
          <mxGeometry x="120" y="-690" width="180" height="80" as="geometry" />
        </mxCell>
        <mxCell id="zcjgjJbBtfx0ok88irLS-16" value="&lt;b&gt;Sub-Claim C5:&lt;br&gt;&lt;/b&gt;TLS inspection&amp;nbsp;can detect Emotet malware even when traffic is encrypted " style="rounded=0;whiteSpace=wrap;html=1;" parent="1" vertex="1">
          <mxGeometry x="130" y="-581.25" width="160" height="75" as="geometry" />
        </mxCell>
        <mxCell id="zcjgjJbBtfx0ok88irLS-17" value="&lt;b&gt;Rebuttal R5&lt;/b&gt;:&amp;nbsp;TLS inspection introduces performance overhead&amp;nbsp;&lt;span style=&quot;color: rgba(0, 0, 0, 0); font-family: monospace; font-size: 0px; text-align: start; text-wrap: nowrap;&quot;&gt;%3CmxGraphModel%3E%3Croot%3E%3CmxCell%20id%3D%220%22%2F%3E%3CmxCell%20id%3D%221%22%20parent%3D%220%22%2F%3E%3CmxCell%20id%3D%222%22%20style%3D%22edgeStyle%3DorthogonalEdgeStyle%3Bcurved%3D1%3Brounded%3D0%3BorthogonalLoop%3D1%3BjettySize%3Dauto%3Bhtml%3D1%3BentryX%3D0.5%3BentryY%3D0%3BentryDx%3D0%3BentryDy%3D0%3BendArrow%3Dblock%3BendFill%3D1%3BexitX%3D0.5%3BexitY%3D1%3BexitDx%3D0%3BexitDy%3D0%3B%22%20edge%3D%221%22%20target%3D%223%22%20parent%3D%221%22%3E%3CmxGeometry%20relative%3D%221%22%20as%3D%22geometry%22%3E%3CmxPoint%20x%3D%22-321%22%20y%3D%22-230%22%20as%3D%22sourcePoint%22%2F%3E%3C%2FmxGeometry%3E%3C%2FmxCell%3E%3CmxCell%20id%3D%223%22%20value%3D%22%22%20style%3D%22ellipse%3BwhiteSpace%3Dwrap%3Bhtml%3D1%3Baspect%3Dfixed%3BfillColor%3D%23CCCCCC%3B%22%20vertex%3D%221%22%20parent%3D%221%22%3E%3CmxGeometry%20x%3D%22-335.62%22%20y%3D%22-190%22%20width%3D%2230%22%20height%3D%2230%22%20as%3D%22geometry%22%2F%3E%3C%2FmxCell%3E%3C%2Froot%3E%3C%2FmxGraphModel%3E&lt;/span&gt;&lt;span style=&quot;color: rgba(0, 0, 0, 0); font-family: monospace; font-size: 0px; text-align: start; text-wrap: nowrap;&quot;&gt;%3CmxGraphModel%3E%3Croot%3E%3CmxCell%20id%3D%220%22%2F%3E%3CmxCell%20id%3D%221%22%20parent%3D%220%22%2F%3E%3CmxCell%20id%3D%222%22%20value%3D%22Rebuttal%20R2%3A%20Unless%20Tweety%20is%20handicapped%22%20style%3D%22shape%3Dnote%3BwhiteSpace%3Dwrap%3Bhtml%3D1%3BbackgroundOutline%3D1%3BdarkOpacity%3D0.05%3Bsize%3D17%3BfillColor%3D%23FFF2CC%3B%22%20vertex%3D%221%22%20parent%3D%221%22%3E%3CmxGeometry%20y%3D%22740%22%20width%3D%22140%22%20height%3D%2260%22%20as%3D%22geometry%22%2F%3E%3C%2FmxCell%3E%3C%2Froot%3E%3C%2FmxGraphModel%3E&lt;/span&gt;" style="shape=note;whiteSpace=wrap;html=1;backgroundOutline=1;darkOpacity=0.05;size=17;fillColor=#FFF2CC;" parent="1" vertex="1">
          <mxGeometry x="115" y="-450" width="190" height="85" as="geometry" />
        </mxCell>
        <mxCell id="NRTWiq4-zaDcEtuE9q8b-1" style="edgeStyle=orthogonalEdgeStyle;curved=1;rounded=0;orthogonalLoop=1;jettySize=auto;html=1;endArrow=block;endFill=1;entryX=0.5;entryY=0;entryDx=0;entryDy=0;entryPerimeter=0;exitX=0.5;exitY=1;exitDx=0;exitDy=0;" parent="1" source="EpLoNu7SxfJ4iQwhgqlz-14" target="EpLoNu7SxfJ4iQwhgqlz-10" edge="1">
          <mxGeometry relative="1" as="geometry">
            <mxPoint x="-670" y="-600" as="sourcePoint" />
            <mxPoint x="-703" y="-575" as="targetPoint" />
          </mxGeometry>
        </mxCell>
        <mxCell id="NRTWiq4-zaDcEtuE9q8b-2" style="edgeStyle=orthogonalEdgeStyle;curved=1;rounded=0;orthogonalLoop=1;jettySize=auto;html=1;endArrow=block;endFill=1;exitX=0.5;exitY=1;exitDx=0;exitDy=0;exitPerimeter=0;entryX=0.582;entryY=-0.051;entryDx=0;entryDy=0;entryPerimeter=0;" parent="1" source="EpLoNu7SxfJ4iQwhgqlz-10" target="NRTWiq4-zaDcEtuE9q8b-3" edge="1">
          <mxGeometry relative="1" as="geometry">
            <mxPoint x="-437" y="-590" as="sourcePoint" />
            <mxPoint x="-670" y="-460" as="targetPoint" />
          </mxGeometry>
        </mxCell>
        <mxCell id="NRTWiq4-zaDcEtuE9q8b-3" value="&lt;b&gt;Sub-Claim C6:&lt;br&gt;&lt;/b&gt;The system&#39;s performance is optimized to avoid congestion&amp;nbsp; under typical network loads." style="rounded=0;whiteSpace=wrap;html=1;" parent="1" vertex="1">
          <mxGeometry x="-800" y="-450" width="180" height="72.5" as="geometry" />
        </mxCell>
        <mxCell id="NRTWiq4-zaDcEtuE9q8b-5" style="edgeStyle=orthogonalEdgeStyle;curved=1;rounded=0;orthogonalLoop=1;jettySize=auto;html=1;endArrow=block;endFill=1;exitX=0.5;exitY=1;exitDx=0;exitDy=0;entryX=0.5;entryY=0;entryDx=0;entryDy=0;" parent="1" source="NRTWiq4-zaDcEtuE9q8b-3" target="EpLoNu7SxfJ4iQwhgqlz-19" edge="1">
          <mxGeometry relative="1" as="geometry">
            <mxPoint x="-705" y="-477" as="sourcePoint" />
            <mxPoint x="-691" y="-434" as="targetPoint" />
          </mxGeometry>
        </mxCell>
        <mxCell id="NRTWiq4-zaDcEtuE9q8b-6" value="&lt;b&gt;Sub-Claim C7:&lt;br&gt;&lt;/b&gt;The&amp;nbsp;Emerging Threats Open ruleset&lt;b&gt;&amp;nbsp;&lt;/b&gt;contains regular updates for detecting Emotet signatures." style="rounded=0;whiteSpace=wrap;html=1;" parent="1" vertex="1">
          <mxGeometry x="-580" y="-450" width="200" height="70" as="geometry" />
        </mxCell>
        <mxCell id="NRTWiq4-zaDcEtuE9q8b-8" value="&lt;b&gt;Sub-Claim C8:&lt;br&gt;&lt;/b&gt;Suricata’s rules are configured to monitor the correct network protocols associated with Emotet" style="rounded=0;whiteSpace=wrap;html=1;" parent="1" vertex="1">
          <mxGeometry x="-310.62" y="-460" width="190" height="80" as="geometry" />
        </mxCell>
        <mxCell id="NRTWiq4-zaDcEtuE9q8b-10" value="&lt;b&gt;Sub-Claim C9:&lt;br&gt;&lt;/b&gt;Suricata’s rules are configured to monitor the correct network system" style="rounded=0;whiteSpace=wrap;html=1;" parent="1" vertex="1">
          <mxGeometry x="110" y="-328.75" width="195" height="78.75" as="geometry" />
        </mxCell>
        <mxCell id="NRTWiq4-zaDcEtuE9q8b-12" style="edgeStyle=orthogonalEdgeStyle;curved=1;rounded=0;orthogonalLoop=1;jettySize=auto;html=1;endArrow=block;endFill=1;entryX=0.5;entryY=0;entryDx=0;entryDy=0;exitX=0.5;exitY=1;exitDx=0;exitDy=0;" parent="1" source="NRTWiq4-zaDcEtuE9q8b-8" target="zcjgjJbBtfx0ok88irLS-9" edge="1">
          <mxGeometry relative="1" as="geometry">
            <mxPoint x="-239" y="-370" as="sourcePoint" />
            <mxPoint x="-210" y="-325" as="targetPoint" />
          </mxGeometry>
        </mxCell>
        <mxCell id="NRTWiq4-zaDcEtuE9q8b-15" value="" style="edgeStyle=orthogonalEdgeStyle;curved=1;rounded=0;orthogonalLoop=1;jettySize=auto;html=1;endArrow=block;endFill=1;exitX=0.5;exitY=1;exitDx=0;exitDy=0;" parent="1" source="EpLoNu7SxfJ4iQwhgqlz-26" target="NRTWiq4-zaDcEtuE9q8b-13" edge="1">
          <mxGeometry relative="1" as="geometry">
            <mxPoint x="230" y="-30" as="sourcePoint" />
            <mxPoint x="226" y="40" as="targetPoint" />
          </mxGeometry>
        </mxCell>
        <mxCell id="NRTWiq4-zaDcEtuE9q8b-13" value="" style="ellipse;whiteSpace=wrap;html=1;aspect=fixed;fillColor=#CCCCCC;" parent="1" vertex="1">
          <mxGeometry x="145.01" y="-60" width="30" height="30" as="geometry" />
        </mxCell>
        <mxCell id="NRTWiq4-zaDcEtuE9q8b-16" style="edgeStyle=orthogonalEdgeStyle;curved=1;rounded=0;orthogonalLoop=1;jettySize=auto;html=1;endArrow=block;endFill=1;exitX=0.5;exitY=1;exitDx=0;exitDy=0;entryX=0.5;entryY=0;entryDx=0;entryDy=0;entryPerimeter=0;" parent="1" source="NRTWiq4-zaDcEtuE9q8b-6" edge="1" target="6qWn8Aii0yTjPBrUQgwf-1">
          <mxGeometry relative="1" as="geometry">
            <mxPoint x="-475.5" y="-370" as="sourcePoint" />
            <mxPoint x="-475" y="-317.5" as="targetPoint" />
          </mxGeometry>
        </mxCell>
        <mxCell id="xvuPovxIob5O6VF2cOsR-1" value="&lt;b&gt;Evidence E2:&lt;/b&gt;&lt;div&gt;Distributed processing&lt;br&gt;&lt;/div&gt;" style="ellipse;whiteSpace=wrap;html=1;aspect=fixed;fillColor=#ffffff;rounded=0;" parent="1" vertex="1">
          <mxGeometry x="-680" y="-310" width="87.5" height="87.5" as="geometry" />
        </mxCell>
        <mxCell id="xvuPovxIob5O6VF2cOsR-2" style="edgeStyle=orthogonalEdgeStyle;curved=1;rounded=0;orthogonalLoop=1;jettySize=auto;html=1;endArrow=block;endFill=1;exitX=0.5;exitY=1;exitDx=0;exitDy=0;entryX=0.5;entryY=0;entryDx=0;entryDy=0;" parent="1" source="NRTWiq4-zaDcEtuE9q8b-3" target="xvuPovxIob5O6VF2cOsR-1" edge="1">
          <mxGeometry relative="1" as="geometry">
            <mxPoint x="-755" y="-370" as="sourcePoint" />
            <mxPoint x="-851" y="-307" as="targetPoint" />
          </mxGeometry>
        </mxCell>
        <mxCell id="xvuPovxIob5O6VF2cOsR-3" style="edgeStyle=orthogonalEdgeStyle;curved=1;rounded=0;orthogonalLoop=1;jettySize=auto;html=1;entryX=0.5;entryY=0;entryDx=0;entryDy=0;endArrow=block;endFill=1;exitX=0.5;exitY=1;exitDx=0;exitDy=0;" parent="1" source="xvuPovxIob5O6VF2cOsR-1" target="xvuPovxIob5O6VF2cOsR-4" edge="1">
          <mxGeometry relative="1" as="geometry">
            <mxPoint x="-636" y="-220" as="sourcePoint" />
          </mxGeometry>
        </mxCell>
        <mxCell id="xvuPovxIob5O6VF2cOsR-4" value="" style="ellipse;whiteSpace=wrap;html=1;aspect=fixed;fillColor=#CCCCCC;" parent="1" vertex="1">
          <mxGeometry x="-651.25" y="-190" width="30" height="30" as="geometry" />
        </mxCell>
        <mxCell id="6qWn8Aii0yTjPBrUQgwf-1" value="&lt;b&gt;Undermine UM1&lt;/b&gt;: Unless ET Open repository is not being updated" style="shape=note;whiteSpace=wrap;html=1;backgroundOutline=1;darkOpacity=0.05;size=17;fillColor=#A9C4EB;" vertex="1" parent="1">
          <mxGeometry x="-567.5" y="-317.5" width="175" height="80" as="geometry" />
        </mxCell>
        <mxCell id="6qWn8Aii0yTjPBrUQgwf-2" value="&lt;b&gt;Evidence E4&lt;/b&gt;:&lt;br&gt;. Custom rules&amp;nbsp;" style="ellipse;whiteSpace=wrap;html=1;aspect=fixed;fillColor=#ffffff;rounded=0;" vertex="1" parent="1">
          <mxGeometry x="-258.75" y="-330" width="98.75" height="98.75" as="geometry" />
        </mxCell>
        <mxCell id="6qWn8Aii0yTjPBrUQgwf-3" style="edgeStyle=orthogonalEdgeStyle;curved=1;rounded=0;orthogonalLoop=1;jettySize=auto;html=1;endArrow=block;endFill=1;entryX=0.5;entryY=0;entryDx=0;entryDy=0;exitX=0.5;exitY=1;exitDx=0;exitDy=0;" edge="1" parent="1" source="NRTWiq4-zaDcEtuE9q8b-8" target="6qWn8Aii0yTjPBrUQgwf-2">
          <mxGeometry relative="1" as="geometry">
            <mxPoint x="-94" y="-330" as="sourcePoint" />
            <mxPoint x="-180" y="-289" as="targetPoint" />
          </mxGeometry>
        </mxCell>
        <mxCell id="6qWn8Aii0yTjPBrUQgwf-4" style="edgeStyle=orthogonalEdgeStyle;curved=1;rounded=0;orthogonalLoop=1;jettySize=auto;html=1;endArrow=block;endFill=1;exitX=0.5;exitY=1;exitDx=0;exitDy=0;entryX=0.5;entryY=0;entryDx=0;entryDy=0;" edge="1" parent="1" source="NRTWiq4-zaDcEtuE9q8b-8" target="6qWn8Aii0yTjPBrUQgwf-5">
          <mxGeometry relative="1" as="geometry">
            <mxPoint x="-230" y="-360" as="sourcePoint" />
            <mxPoint x="-60" y="-320" as="targetPoint" />
          </mxGeometry>
        </mxCell>
        <mxCell id="6qWn8Aii0yTjPBrUQgwf-5" value="&lt;b&gt;Evidence E5&lt;/b&gt;:&lt;br&gt;URI patterns&amp;nbsp;" style="ellipse;whiteSpace=wrap;html=1;aspect=fixed;fillColor=#ffffff;rounded=0;" vertex="1" parent="1">
          <mxGeometry x="-140" y="-328.75" width="98.75" height="98.75" as="geometry" />
        </mxCell>
        <mxCell id="6qWn8Aii0yTjPBrUQgwf-6" value="&lt;b&gt;Evidence E6&lt;/b&gt;:&lt;br&gt;&amp;nbsp;SSL/TLS certificate anomalies&amp;nbsp;" style="ellipse;whiteSpace=wrap;html=1;aspect=fixed;fillColor=#ffffff;rounded=0;" vertex="1" parent="1">
          <mxGeometry x="-30" y="-328.75" width="98.75" height="98.75" as="geometry" />
        </mxCell>
        <mxCell id="6qWn8Aii0yTjPBrUQgwf-7" style="edgeStyle=orthogonalEdgeStyle;curved=1;rounded=0;orthogonalLoop=1;jettySize=auto;html=1;endArrow=block;endFill=1;exitX=0.5;exitY=1;exitDx=0;exitDy=0;entryX=0.5;entryY=0;entryDx=0;entryDy=0;" edge="1" parent="1" source="NRTWiq4-zaDcEtuE9q8b-8" target="6qWn8Aii0yTjPBrUQgwf-6">
          <mxGeometry relative="1" as="geometry">
            <mxPoint x="-130" y="-371" as="sourcePoint" />
            <mxPoint x="14" y="-330" as="targetPoint" />
          </mxGeometry>
        </mxCell>
        <mxCell id="6qWn8Aii0yTjPBrUQgwf-8" style="edgeStyle=orthogonalEdgeStyle;curved=1;rounded=0;orthogonalLoop=1;jettySize=auto;html=1;entryX=0.5;entryY=0;entryDx=0;entryDy=0;endArrow=block;endFill=1;exitX=0.5;exitY=1;exitDx=0;exitDy=0;" edge="1" parent="1" target="6qWn8Aii0yTjPBrUQgwf-9" source="6qWn8Aii0yTjPBrUQgwf-2">
          <mxGeometry relative="1" as="geometry">
            <mxPoint x="-311" y="-220" as="sourcePoint" />
          </mxGeometry>
        </mxCell>
        <mxCell id="6qWn8Aii0yTjPBrUQgwf-9" value="" style="ellipse;whiteSpace=wrap;html=1;aspect=fixed;fillColor=#CCCCCC;" vertex="1" parent="1">
          <mxGeometry x="-224.37" y="-190" width="30" height="30" as="geometry" />
        </mxCell>
        <mxCell id="6qWn8Aii0yTjPBrUQgwf-11" style="edgeStyle=orthogonalEdgeStyle;curved=1;rounded=0;orthogonalLoop=1;jettySize=auto;html=1;entryX=0.5;entryY=0;entryDx=0;entryDy=0;endArrow=block;endFill=1;exitX=0.5;exitY=1;exitDx=0;exitDy=0;" edge="1" parent="1" target="6qWn8Aii0yTjPBrUQgwf-12" source="6qWn8Aii0yTjPBrUQgwf-5">
          <mxGeometry relative="1" as="geometry">
            <mxPoint x="-85.38" y="-220" as="sourcePoint" />
          </mxGeometry>
        </mxCell>
        <mxCell id="6qWn8Aii0yTjPBrUQgwf-12" value="" style="ellipse;whiteSpace=wrap;html=1;aspect=fixed;fillColor=#CCCCCC;" vertex="1" parent="1">
          <mxGeometry x="-105.63000000000001" y="-190" width="30" height="30" as="geometry" />
        </mxCell>
        <mxCell id="6qWn8Aii0yTjPBrUQgwf-14" style="edgeStyle=orthogonalEdgeStyle;curved=1;rounded=0;orthogonalLoop=1;jettySize=auto;html=1;entryX=0.5;entryY=0;entryDx=0;entryDy=0;endArrow=block;endFill=1;exitX=0.5;exitY=1;exitDx=0;exitDy=0;" edge="1" parent="1" target="6qWn8Aii0yTjPBrUQgwf-15" source="6qWn8Aii0yTjPBrUQgwf-6">
          <mxGeometry relative="1" as="geometry">
            <mxPoint x="24.620000000000005" y="-220" as="sourcePoint" />
          </mxGeometry>
        </mxCell>
        <mxCell id="6qWn8Aii0yTjPBrUQgwf-15" value="" style="ellipse;whiteSpace=wrap;html=1;aspect=fixed;fillColor=#CCCCCC;" vertex="1" parent="1">
          <mxGeometry x="4.38" y="-190" width="30" height="30" as="geometry" />
        </mxCell>
        <mxCell id="6qWn8Aii0yTjPBrUQgwf-16" style="edgeStyle=orthogonalEdgeStyle;rounded=0;orthogonalLoop=1;jettySize=auto;html=1;exitX=0.5;exitY=1;exitDx=0;exitDy=0;" edge="1" parent="1" source="6qWn8Aii0yTjPBrUQgwf-12" target="6qWn8Aii0yTjPBrUQgwf-12">
          <mxGeometry relative="1" as="geometry" />
        </mxCell>
        <mxCell id="6qWn8Aii0yTjPBrUQgwf-20" value="&lt;b&gt;Evidence E8&lt;/b&gt;:&lt;br&gt;&amp;nbsp;tls.log" style="ellipse;whiteSpace=wrap;html=1;aspect=fixed;fillColor=#ffffff;rounded=0;" vertex="1" parent="1">
          <mxGeometry x="240" y="-190.01" width="90.01" height="90.01" as="geometry" />
        </mxCell>
        <mxCell id="6qWn8Aii0yTjPBrUQgwf-21" style="edgeStyle=orthogonalEdgeStyle;curved=1;rounded=0;orthogonalLoop=1;jettySize=auto;html=1;endArrow=block;endFill=1;exitX=0.5;exitY=1;exitDx=0;exitDy=0;entryX=0.5;entryY=0;entryDx=0;entryDy=0;" edge="1" parent="1" source="NRTWiq4-zaDcEtuE9q8b-10" target="6qWn8Aii0yTjPBrUQgwf-20">
          <mxGeometry relative="1" as="geometry">
            <mxPoint x="240" y="-220" as="sourcePoint" />
            <mxPoint x="145" y="-180" as="targetPoint" />
          </mxGeometry>
        </mxCell>
        <mxCell id="6qWn8Aii0yTjPBrUQgwf-22" value="" style="edgeStyle=orthogonalEdgeStyle;curved=1;rounded=0;orthogonalLoop=1;jettySize=auto;html=1;endArrow=block;endFill=1;exitX=0.5;exitY=1;exitDx=0;exitDy=0;" edge="1" parent="1" target="6qWn8Aii0yTjPBrUQgwf-23" source="6qWn8Aii0yTjPBrUQgwf-20">
          <mxGeometry relative="1" as="geometry">
            <mxPoint x="165" y="-90" as="sourcePoint" />
            <mxPoint x="236" y="50" as="targetPoint" />
          </mxGeometry>
        </mxCell>
        <mxCell id="6qWn8Aii0yTjPBrUQgwf-23" value="" style="ellipse;whiteSpace=wrap;html=1;aspect=fixed;fillColor=#CCCCCC;" vertex="1" parent="1">
          <mxGeometry x="270" y="-60" width="30" height="30" as="geometry" />
        </mxCell>
        <mxCell id="6qWn8Aii0yTjPBrUQgwf-26" style="edgeStyle=orthogonalEdgeStyle;curved=1;rounded=0;orthogonalLoop=1;jettySize=auto;html=1;endArrow=block;endFill=1;exitX=0.5;exitY=1;exitDx=0;exitDy=0;entryX=0.5;entryY=0;entryDx=0;entryDy=0;" edge="1" parent="1" source="NRTWiq4-zaDcEtuE9q8b-10" target="EpLoNu7SxfJ4iQwhgqlz-26">
          <mxGeometry relative="1" as="geometry">
            <mxPoint x="220" y="-239" as="sourcePoint" />
            <mxPoint x="295" y="-180" as="targetPoint" />
          </mxGeometry>
        </mxCell>
      </root>
    </mxGraphModel>
  </diagram>
</mxfile>
